<mxfile host="Electron" modified="2023-04-18T03:39:44.356Z" agent="Mozilla/5.0 (Windows NT 10.0; Win64; x64) AppleWebKit/537.36 (KHTML, like Gecko) draw.io/21.1.2 Chrome/106.0.5249.199 Electron/21.4.3 Safari/537.36" etag="gl0Np-lZWtO83jbHhFI3" version="21.1.2" type="device">
  <diagram id="R2lEEEUBdFMjLlhIrx00" name="Page-1">
    <mxGraphModel dx="1418" dy="828" grid="1" gridSize="10" guides="1" tooltips="1" connect="1" arrows="1" fold="1" page="1" pageScale="1" pageWidth="1654" pageHeight="1169" math="0" shadow="0" extFonts="Permanent Marker^https://fonts.googleapis.com/css?family=Permanent+Marker">
      <root>
        <mxCell id="0" />
        <mxCell id="1" parent="0" />
        <mxCell id="409vcOzin7DSKUUwwrOm-1" value="DP_CTL_Users" style="swimlane;fontStyle=1;childLayout=stackLayout;horizontal=1;startSize=30;horizontalStack=0;resizeParent=1;resizeParentMax=0;resizeLast=0;collapsible=1;marginBottom=0;whiteSpace=wrap;html=1;strokeWidth=2;" vertex="1" parent="1">
          <mxGeometry x="40" y="80" width="160" height="420" as="geometry" />
        </mxCell>
        <mxCell id="409vcOzin7DSKUUwwrOm-2" value="dp_id" style="text;strokeColor=none;fillColor=none;align=left;verticalAlign=middle;spacingLeft=4;spacingRight=4;overflow=hidden;points=[[0,0.5],[1,0.5]];portConstraint=eastwest;rotatable=0;whiteSpace=wrap;html=1;strokeWidth=2;fontStyle=1" vertex="1" parent="409vcOzin7DSKUUwwrOm-1">
          <mxGeometry y="30" width="160" height="30" as="geometry" />
        </mxCell>
        <mxCell id="409vcOzin7DSKUUwwrOm-3" value="dp_login" style="text;strokeColor=none;fillColor=none;align=left;verticalAlign=middle;spacingLeft=4;spacingRight=4;overflow=hidden;points=[[0,0.5],[1,0.5]];portConstraint=eastwest;rotatable=0;whiteSpace=wrap;html=1;strokeWidth=2;fontStyle=1" vertex="1" parent="409vcOzin7DSKUUwwrOm-1">
          <mxGeometry y="60" width="160" height="30" as="geometry" />
        </mxCell>
        <mxCell id="409vcOzin7DSKUUwwrOm-4" value="dp_email" style="text;strokeColor=none;fillColor=none;align=left;verticalAlign=middle;spacingLeft=4;spacingRight=4;overflow=hidden;points=[[0,0.5],[1,0.5]];portConstraint=eastwest;rotatable=0;whiteSpace=wrap;html=1;strokeWidth=2;fontStyle=1" vertex="1" parent="409vcOzin7DSKUUwwrOm-1">
          <mxGeometry y="90" width="160" height="30" as="geometry" />
        </mxCell>
        <mxCell id="409vcOzin7DSKUUwwrOm-5" value="dp_passwordHash" style="text;strokeColor=none;fillColor=none;align=left;verticalAlign=middle;spacingLeft=4;spacingRight=4;overflow=hidden;points=[[0,0.5],[1,0.5]];portConstraint=eastwest;rotatable=0;whiteSpace=wrap;html=1;strokeWidth=2;fontStyle=1" vertex="1" parent="409vcOzin7DSKUUwwrOm-1">
          <mxGeometry y="120" width="160" height="30" as="geometry" />
        </mxCell>
        <mxCell id="409vcOzin7DSKUUwwrOm-6" value="dp_unp" style="text;strokeColor=none;fillColor=none;align=left;verticalAlign=middle;spacingLeft=4;spacingRight=4;overflow=hidden;points=[[0,0.5],[1,0.5]];portConstraint=eastwest;rotatable=0;whiteSpace=wrap;html=1;strokeWidth=2;fontStyle=1" vertex="1" parent="409vcOzin7DSKUUwwrOm-1">
          <mxGeometry y="150" width="160" height="30" as="geometry" />
        </mxCell>
        <mxCell id="409vcOzin7DSKUUwwrOm-7" value="dp_organizationName" style="text;strokeColor=none;fillColor=none;align=left;verticalAlign=middle;spacingLeft=4;spacingRight=4;overflow=hidden;points=[[0,0.5],[1,0.5]];portConstraint=eastwest;rotatable=0;whiteSpace=wrap;html=1;strokeWidth=2;fontStyle=1" vertex="1" parent="409vcOzin7DSKUUwwrOm-1">
          <mxGeometry y="180" width="160" height="30" as="geometry" />
        </mxCell>
        <mxCell id="409vcOzin7DSKUUwwrOm-8" value="dp_bankAccountNumber" style="text;strokeColor=none;fillColor=none;align=left;verticalAlign=middle;spacingLeft=4;spacingRight=4;overflow=hidden;points=[[0,0.5],[1,0.5]];portConstraint=eastwest;rotatable=0;whiteSpace=wrap;html=1;strokeWidth=2;fontStyle=1" vertex="1" parent="409vcOzin7DSKUUwwrOm-1">
          <mxGeometry y="210" width="160" height="30" as="geometry" />
        </mxCell>
        <mxCell id="409vcOzin7DSKUUwwrOm-9" value="dp_bankName" style="text;strokeColor=none;fillColor=none;align=left;verticalAlign=middle;spacingLeft=4;spacingRight=4;overflow=hidden;points=[[0,0.5],[1,0.5]];portConstraint=eastwest;rotatable=0;whiteSpace=wrap;html=1;strokeWidth=2;fontStyle=1" vertex="1" parent="409vcOzin7DSKUUwwrOm-1">
          <mxGeometry y="240" width="160" height="30" as="geometry" />
        </mxCell>
        <mxCell id="409vcOzin7DSKUUwwrOm-10" value="dp_firstName" style="text;strokeColor=none;fillColor=none;align=left;verticalAlign=middle;spacingLeft=4;spacingRight=4;overflow=hidden;points=[[0,0.5],[1,0.5]];portConstraint=eastwest;rotatable=0;whiteSpace=wrap;html=1;strokeWidth=2;fontStyle=1" vertex="1" parent="409vcOzin7DSKUUwwrOm-1">
          <mxGeometry y="270" width="160" height="30" as="geometry" />
        </mxCell>
        <mxCell id="409vcOzin7DSKUUwwrOm-11" value="dp_middleName" style="text;strokeColor=none;fillColor=none;align=left;verticalAlign=middle;spacingLeft=4;spacingRight=4;overflow=hidden;points=[[0,0.5],[1,0.5]];portConstraint=eastwest;rotatable=0;whiteSpace=wrap;html=1;strokeWidth=2;fontStyle=1" vertex="1" parent="409vcOzin7DSKUUwwrOm-1">
          <mxGeometry y="300" width="160" height="30" as="geometry" />
        </mxCell>
        <mxCell id="409vcOzin7DSKUUwwrOm-12" value="dp_lastName" style="text;strokeColor=none;fillColor=none;align=left;verticalAlign=middle;spacingLeft=4;spacingRight=4;overflow=hidden;points=[[0,0.5],[1,0.5]];portConstraint=eastwest;rotatable=0;whiteSpace=wrap;html=1;strokeWidth=2;fontStyle=1" vertex="1" parent="409vcOzin7DSKUUwwrOm-1">
          <mxGeometry y="330" width="160" height="30" as="geometry" />
        </mxCell>
        <mxCell id="409vcOzin7DSKUUwwrOm-13" value="dp_address" style="text;strokeColor=none;fillColor=none;align=left;verticalAlign=middle;spacingLeft=4;spacingRight=4;overflow=hidden;points=[[0,0.5],[1,0.5]];portConstraint=eastwest;rotatable=0;whiteSpace=wrap;html=1;strokeWidth=2;fontStyle=1" vertex="1" parent="409vcOzin7DSKUUwwrOm-1">
          <mxGeometry y="360" width="160" height="30" as="geometry" />
        </mxCell>
        <mxCell id="409vcOzin7DSKUUwwrOm-14" value="dp_phone" style="text;strokeColor=none;fillColor=none;align=left;verticalAlign=middle;spacingLeft=4;spacingRight=4;overflow=hidden;points=[[0,0.5],[1,0.5]];portConstraint=eastwest;rotatable=0;whiteSpace=wrap;html=1;strokeWidth=2;fontStyle=1" vertex="1" parent="409vcOzin7DSKUUwwrOm-1">
          <mxGeometry y="390" width="160" height="30" as="geometry" />
        </mxCell>
        <mxCell id="409vcOzin7DSKUUwwrOm-15" value="DP_CTL_ActivationAccount" style="swimlane;fontStyle=1;childLayout=stackLayout;horizontal=1;startSize=30;horizontalStack=0;resizeParent=1;resizeParentMax=0;resizeLast=0;collapsible=1;marginBottom=0;whiteSpace=wrap;html=1;strokeWidth=2;" vertex="1" parent="1">
          <mxGeometry x="280" y="80" width="200" height="180" as="geometry" />
        </mxCell>
        <mxCell id="409vcOzin7DSKUUwwrOm-16" value="dp_id" style="text;strokeColor=none;fillColor=none;align=left;verticalAlign=middle;spacingLeft=4;spacingRight=4;overflow=hidden;points=[[0,0.5],[1,0.5]];portConstraint=eastwest;rotatable=0;whiteSpace=wrap;html=1;strokeWidth=2;fontStyle=1" vertex="1" parent="409vcOzin7DSKUUwwrOm-15">
          <mxGeometry y="30" width="200" height="30" as="geometry" />
        </mxCell>
        <mxCell id="409vcOzin7DSKUUwwrOm-17" value="dp_date" style="text;strokeColor=none;fillColor=none;align=left;verticalAlign=middle;spacingLeft=4;spacingRight=4;overflow=hidden;points=[[0,0.5],[1,0.5]];portConstraint=eastwest;rotatable=0;whiteSpace=wrap;html=1;strokeWidth=2;fontStyle=1" vertex="1" parent="409vcOzin7DSKUUwwrOm-15">
          <mxGeometry y="60" width="200" height="30" as="geometry" />
        </mxCell>
        <mxCell id="409vcOzin7DSKUUwwrOm-18" value="dp_token" style="text;strokeColor=none;fillColor=none;align=left;verticalAlign=middle;spacingLeft=4;spacingRight=4;overflow=hidden;points=[[0,0.5],[1,0.5]];portConstraint=eastwest;rotatable=0;whiteSpace=wrap;html=1;strokeWidth=2;fontStyle=1" vertex="1" parent="409vcOzin7DSKUUwwrOm-15">
          <mxGeometry y="90" width="200" height="30" as="geometry" />
        </mxCell>
        <mxCell id="409vcOzin7DSKUUwwrOm-19" value="dp_userId" style="text;strokeColor=none;fillColor=none;align=left;verticalAlign=middle;spacingLeft=4;spacingRight=4;overflow=hidden;points=[[0,0.5],[1,0.5]];portConstraint=eastwest;rotatable=0;whiteSpace=wrap;html=1;strokeWidth=2;fontStyle=1" vertex="1" parent="409vcOzin7DSKUUwwrOm-15">
          <mxGeometry y="120" width="200" height="30" as="geometry" />
        </mxCell>
        <mxCell id="409vcOzin7DSKUUwwrOm-20" value="dp_isActivated" style="text;strokeColor=none;fillColor=none;align=left;verticalAlign=middle;spacingLeft=4;spacingRight=4;overflow=hidden;points=[[0,0.5],[1,0.5]];portConstraint=eastwest;rotatable=0;whiteSpace=wrap;html=1;strokeWidth=2;fontStyle=1" vertex="1" parent="409vcOzin7DSKUUwwrOm-15">
          <mxGeometry y="150" width="200" height="30" as="geometry" />
        </mxCell>
        <mxCell id="409vcOzin7DSKUUwwrOm-29" value="DP_DOC_Sessions" style="swimlane;fontStyle=1;childLayout=stackLayout;horizontal=1;startSize=30;horizontalStack=0;resizeParent=1;resizeParentMax=0;resizeLast=0;collapsible=1;marginBottom=0;whiteSpace=wrap;html=1;strokeWidth=2;" vertex="1" parent="1">
          <mxGeometry x="280" y="290" width="120" height="240" as="geometry" />
        </mxCell>
        <mxCell id="409vcOzin7DSKUUwwrOm-30" value="dp_id" style="text;strokeColor=none;fillColor=none;align=left;verticalAlign=middle;spacingLeft=4;spacingRight=4;overflow=hidden;points=[[0,0.5],[1,0.5]];portConstraint=eastwest;rotatable=0;whiteSpace=wrap;html=1;strokeWidth=2;fontStyle=1" vertex="1" parent="409vcOzin7DSKUUwwrOm-29">
          <mxGeometry y="30" width="120" height="30" as="geometry" />
        </mxCell>
        <mxCell id="409vcOzin7DSKUUwwrOm-31" value="dp_date" style="text;strokeColor=none;fillColor=none;align=left;verticalAlign=middle;spacingLeft=4;spacingRight=4;overflow=hidden;points=[[0,0.5],[1,0.5]];portConstraint=eastwest;rotatable=0;whiteSpace=wrap;html=1;strokeWidth=2;fontStyle=1" vertex="1" parent="409vcOzin7DSKUUwwrOm-29">
          <mxGeometry y="60" width="120" height="30" as="geometry" />
        </mxCell>
        <mxCell id="409vcOzin7DSKUUwwrOm-32" value="dp_ip" style="text;strokeColor=none;fillColor=none;align=left;verticalAlign=middle;spacingLeft=4;spacingRight=4;overflow=hidden;points=[[0,0.5],[1,0.5]];portConstraint=eastwest;rotatable=0;whiteSpace=wrap;html=1;strokeWidth=2;fontStyle=1" vertex="1" parent="409vcOzin7DSKUUwwrOm-29">
          <mxGeometry y="90" width="120" height="30" as="geometry" />
        </mxCell>
        <mxCell id="409vcOzin7DSKUUwwrOm-33" value="dp_agent" style="text;strokeColor=none;fillColor=none;align=left;verticalAlign=middle;spacingLeft=4;spacingRight=4;overflow=hidden;points=[[0,0.5],[1,0.5]];portConstraint=eastwest;rotatable=0;whiteSpace=wrap;html=1;strokeWidth=2;fontStyle=1" vertex="1" parent="409vcOzin7DSKUUwwrOm-29">
          <mxGeometry y="120" width="120" height="30" as="geometry" />
        </mxCell>
        <mxCell id="409vcOzin7DSKUUwwrOm-34" value="dp_accessToken" style="text;strokeColor=none;fillColor=none;align=left;verticalAlign=middle;spacingLeft=4;spacingRight=4;overflow=hidden;points=[[0,0.5],[1,0.5]];portConstraint=eastwest;rotatable=0;whiteSpace=wrap;html=1;strokeWidth=2;fontStyle=1" vertex="1" parent="409vcOzin7DSKUUwwrOm-29">
          <mxGeometry y="150" width="120" height="30" as="geometry" />
        </mxCell>
        <mxCell id="409vcOzin7DSKUUwwrOm-35" value="dp_refreshToken" style="text;strokeColor=none;fillColor=none;align=left;verticalAlign=middle;spacingLeft=4;spacingRight=4;overflow=hidden;points=[[0,0.5],[1,0.5]];portConstraint=eastwest;rotatable=0;whiteSpace=wrap;html=1;strokeWidth=2;fontStyle=1" vertex="1" parent="409vcOzin7DSKUUwwrOm-29">
          <mxGeometry y="180" width="120" height="30" as="geometry" />
        </mxCell>
        <mxCell id="409vcOzin7DSKUUwwrOm-36" value="dp_userId" style="text;strokeColor=none;fillColor=none;align=left;verticalAlign=middle;spacingLeft=4;spacingRight=4;overflow=hidden;points=[[0,0.5],[1,0.5]];portConstraint=eastwest;rotatable=0;whiteSpace=wrap;html=1;strokeWidth=2;fontStyle=1" vertex="1" parent="409vcOzin7DSKUUwwrOm-29">
          <mxGeometry y="210" width="120" height="30" as="geometry" />
        </mxCell>
        <mxCell id="409vcOzin7DSKUUwwrOm-37" value="DP_DOC_ChangeEmail" style="swimlane;fontStyle=1;childLayout=stackLayout;horizontal=1;startSize=30;horizontalStack=0;resizeParent=1;resizeParentMax=0;resizeLast=0;collapsible=1;marginBottom=0;whiteSpace=wrap;html=1;strokeWidth=2;" vertex="1" parent="1">
          <mxGeometry x="280" y="560" width="160" height="240" as="geometry" />
        </mxCell>
        <mxCell id="409vcOzin7DSKUUwwrOm-38" value="dp_id" style="text;strokeColor=none;fillColor=none;align=left;verticalAlign=middle;spacingLeft=4;spacingRight=4;overflow=hidden;points=[[0,0.5],[1,0.5]];portConstraint=eastwest;rotatable=0;whiteSpace=wrap;html=1;strokeWidth=2;fontStyle=1" vertex="1" parent="409vcOzin7DSKUUwwrOm-37">
          <mxGeometry y="30" width="160" height="30" as="geometry" />
        </mxCell>
        <mxCell id="409vcOzin7DSKUUwwrOm-39" value="dp_date" style="text;strokeColor=none;fillColor=none;align=left;verticalAlign=middle;spacingLeft=4;spacingRight=4;overflow=hidden;points=[[0,0.5],[1,0.5]];portConstraint=eastwest;rotatable=0;whiteSpace=wrap;html=1;strokeWidth=2;fontStyle=1" vertex="1" parent="409vcOzin7DSKUUwwrOm-37">
          <mxGeometry y="60" width="160" height="30" as="geometry" />
        </mxCell>
        <mxCell id="409vcOzin7DSKUUwwrOm-40" value="dp_token" style="text;strokeColor=none;fillColor=none;align=left;verticalAlign=middle;spacingLeft=4;spacingRight=4;overflow=hidden;points=[[0,0.5],[1,0.5]];portConstraint=eastwest;rotatable=0;whiteSpace=wrap;html=1;strokeWidth=2;fontStyle=1" vertex="1" parent="409vcOzin7DSKUUwwrOm-37">
          <mxGeometry y="90" width="160" height="30" as="geometry" />
        </mxCell>
        <mxCell id="409vcOzin7DSKUUwwrOm-41" value="dp_oldEmail" style="text;strokeColor=none;fillColor=none;align=left;verticalAlign=middle;spacingLeft=4;spacingRight=4;overflow=hidden;points=[[0,0.5],[1,0.5]];portConstraint=eastwest;rotatable=0;whiteSpace=wrap;html=1;strokeWidth=2;fontStyle=1" vertex="1" parent="409vcOzin7DSKUUwwrOm-37">
          <mxGeometry y="120" width="160" height="30" as="geometry" />
        </mxCell>
        <mxCell id="409vcOzin7DSKUUwwrOm-42" value="dp_newEmail" style="text;strokeColor=none;fillColor=none;align=left;verticalAlign=middle;spacingLeft=4;spacingRight=4;overflow=hidden;points=[[0,0.5],[1,0.5]];portConstraint=eastwest;rotatable=0;whiteSpace=wrap;html=1;strokeWidth=2;fontStyle=1" vertex="1" parent="409vcOzin7DSKUUwwrOm-37">
          <mxGeometry y="150" width="160" height="30" as="geometry" />
        </mxCell>
        <mxCell id="409vcOzin7DSKUUwwrOm-43" value="dp_userId" style="text;strokeColor=none;fillColor=none;align=left;verticalAlign=middle;spacingLeft=4;spacingRight=4;overflow=hidden;points=[[0,0.5],[1,0.5]];portConstraint=eastwest;rotatable=0;whiteSpace=wrap;html=1;strokeWidth=2;fontStyle=1" vertex="1" parent="409vcOzin7DSKUUwwrOm-37">
          <mxGeometry y="180" width="160" height="30" as="geometry" />
        </mxCell>
        <mxCell id="409vcOzin7DSKUUwwrOm-44" value="dp_isClosed" style="text;strokeColor=none;fillColor=none;align=left;verticalAlign=middle;spacingLeft=4;spacingRight=4;overflow=hidden;points=[[0,0.5],[1,0.5]];portConstraint=eastwest;rotatable=0;whiteSpace=wrap;html=1;strokeWidth=2;fontStyle=1" vertex="1" parent="409vcOzin7DSKUUwwrOm-37">
          <mxGeometry y="210" width="160" height="30" as="geometry" />
        </mxCell>
        <mxCell id="409vcOzin7DSKUUwwrOm-45" value="DP_CTL_Roles" style="swimlane;fontStyle=1;childLayout=stackLayout;horizontal=1;startSize=30;horizontalStack=0;resizeParent=1;resizeParentMax=0;resizeLast=0;collapsible=1;marginBottom=0;whiteSpace=wrap;html=1;strokeWidth=2;" vertex="1" parent="1">
          <mxGeometry x="680" y="320" width="120" height="90" as="geometry" />
        </mxCell>
        <mxCell id="409vcOzin7DSKUUwwrOm-46" value="dp_id" style="text;strokeColor=none;fillColor=none;align=left;verticalAlign=middle;spacingLeft=4;spacingRight=4;overflow=hidden;points=[[0,0.5],[1,0.5]];portConstraint=eastwest;rotatable=0;whiteSpace=wrap;html=1;strokeWidth=2;fontStyle=1" vertex="1" parent="409vcOzin7DSKUUwwrOm-45">
          <mxGeometry y="30" width="120" height="30" as="geometry" />
        </mxCell>
        <mxCell id="409vcOzin7DSKUUwwrOm-47" value="dp_name" style="text;strokeColor=none;fillColor=none;align=left;verticalAlign=middle;spacingLeft=4;spacingRight=4;overflow=hidden;points=[[0,0.5],[1,0.5]];portConstraint=eastwest;rotatable=0;whiteSpace=wrap;html=1;strokeWidth=2;fontStyle=1" vertex="1" parent="409vcOzin7DSKUUwwrOm-45">
          <mxGeometry y="60" width="120" height="30" as="geometry" />
        </mxCell>
        <mxCell id="409vcOzin7DSKUUwwrOm-53" value="DP_LST_UserRoles" style="swimlane;fontStyle=1;childLayout=stackLayout;horizontal=1;startSize=30;horizontalStack=0;resizeParent=1;resizeParentMax=0;resizeLast=0;collapsible=1;marginBottom=0;whiteSpace=wrap;html=1;strokeWidth=2;" vertex="1" parent="1">
          <mxGeometry x="520" y="200" width="120" height="120" as="geometry" />
        </mxCell>
        <mxCell id="409vcOzin7DSKUUwwrOm-54" value="dp_id" style="text;strokeColor=none;fillColor=none;align=left;verticalAlign=middle;spacingLeft=4;spacingRight=4;overflow=hidden;points=[[0,0.5],[1,0.5]];portConstraint=eastwest;rotatable=0;whiteSpace=wrap;html=1;strokeWidth=2;fontStyle=1" vertex="1" parent="409vcOzin7DSKUUwwrOm-53">
          <mxGeometry y="30" width="120" height="30" as="geometry" />
        </mxCell>
        <mxCell id="409vcOzin7DSKUUwwrOm-55" value="dp_userId" style="text;strokeColor=none;fillColor=none;align=left;verticalAlign=middle;spacingLeft=4;spacingRight=4;overflow=hidden;points=[[0,0.5],[1,0.5]];portConstraint=eastwest;rotatable=0;whiteSpace=wrap;html=1;strokeWidth=2;fontStyle=1" vertex="1" parent="409vcOzin7DSKUUwwrOm-53">
          <mxGeometry y="60" width="120" height="30" as="geometry" />
        </mxCell>
        <mxCell id="409vcOzin7DSKUUwwrOm-56" value="dp_roleId" style="text;strokeColor=none;fillColor=none;align=left;verticalAlign=middle;spacingLeft=4;spacingRight=4;overflow=hidden;points=[[0,0.5],[1,0.5]];portConstraint=eastwest;rotatable=0;whiteSpace=wrap;html=1;strokeWidth=2;fontStyle=1" vertex="1" parent="409vcOzin7DSKUUwwrOm-53">
          <mxGeometry y="90" width="120" height="30" as="geometry" />
        </mxCell>
        <mxCell id="409vcOzin7DSKUUwwrOm-57" value="DP_DOC_BannedUsers" style="swimlane;fontStyle=1;childLayout=stackLayout;horizontal=1;startSize=30;horizontalStack=0;resizeParent=1;resizeParentMax=0;resizeLast=0;collapsible=1;marginBottom=0;whiteSpace=wrap;html=1;strokeWidth=2;" vertex="1" parent="1">
          <mxGeometry x="40" y="560" width="160" height="150" as="geometry" />
        </mxCell>
        <mxCell id="409vcOzin7DSKUUwwrOm-58" value="dp_id" style="text;strokeColor=none;fillColor=none;align=left;verticalAlign=middle;spacingLeft=4;spacingRight=4;overflow=hidden;points=[[0,0.5],[1,0.5]];portConstraint=eastwest;rotatable=0;whiteSpace=wrap;html=1;strokeWidth=2;fontStyle=1" vertex="1" parent="409vcOzin7DSKUUwwrOm-57">
          <mxGeometry y="30" width="160" height="30" as="geometry" />
        </mxCell>
        <mxCell id="409vcOzin7DSKUUwwrOm-59" value="dp_data" style="text;strokeColor=none;fillColor=none;align=left;verticalAlign=middle;spacingLeft=4;spacingRight=4;overflow=hidden;points=[[0,0.5],[1,0.5]];portConstraint=eastwest;rotatable=0;whiteSpace=wrap;html=1;strokeWidth=2;fontStyle=1" vertex="1" parent="409vcOzin7DSKUUwwrOm-57">
          <mxGeometry y="60" width="160" height="30" as="geometry" />
        </mxCell>
        <mxCell id="409vcOzin7DSKUUwwrOm-60" value="dp_userId" style="text;strokeColor=none;fillColor=none;align=left;verticalAlign=middle;spacingLeft=4;spacingRight=4;overflow=hidden;points=[[0,0.5],[1,0.5]];portConstraint=eastwest;rotatable=0;whiteSpace=wrap;html=1;strokeWidth=2;fontStyle=1" vertex="1" parent="409vcOzin7DSKUUwwrOm-57">
          <mxGeometry y="90" width="160" height="30" as="geometry" />
        </mxCell>
        <mxCell id="409vcOzin7DSKUUwwrOm-61" value="dp_reason" style="text;strokeColor=none;fillColor=none;align=left;verticalAlign=middle;spacingLeft=4;spacingRight=4;overflow=hidden;points=[[0,0.5],[1,0.5]];portConstraint=eastwest;rotatable=0;whiteSpace=wrap;html=1;strokeWidth=2;fontStyle=1" vertex="1" parent="409vcOzin7DSKUUwwrOm-57">
          <mxGeometry y="120" width="160" height="30" as="geometry" />
        </mxCell>
        <mxCell id="409vcOzin7DSKUUwwrOm-62" value="DP_CTL_ItemBrands" style="swimlane;fontStyle=1;childLayout=stackLayout;horizontal=1;startSize=30;horizontalStack=0;resizeParent=1;resizeParentMax=0;resizeLast=0;collapsible=1;marginBottom=0;whiteSpace=wrap;html=1;strokeWidth=2;" vertex="1" parent="1">
          <mxGeometry x="480" y="720" width="160" height="270" as="geometry" />
        </mxCell>
        <mxCell id="409vcOzin7DSKUUwwrOm-63" value="dp_id" style="text;strokeColor=none;fillColor=none;align=left;verticalAlign=middle;spacingLeft=4;spacingRight=4;overflow=hidden;points=[[0,0.5],[1,0.5]];portConstraint=eastwest;rotatable=0;whiteSpace=wrap;html=1;strokeWidth=2;fontStyle=1" vertex="1" parent="409vcOzin7DSKUUwwrOm-62">
          <mxGeometry y="30" width="160" height="30" as="geometry" />
        </mxCell>
        <mxCell id="409vcOzin7DSKUUwwrOm-64" value="dp_name" style="text;strokeColor=none;fillColor=none;align=left;verticalAlign=middle;spacingLeft=4;spacingRight=4;overflow=hidden;points=[[0,0.5],[1,0.5]];portConstraint=eastwest;rotatable=0;whiteSpace=wrap;html=1;strokeWidth=2;fontStyle=1" vertex="1" parent="409vcOzin7DSKUUwwrOm-62">
          <mxGeometry y="60" width="160" height="30" as="geometry" />
        </mxCell>
        <mxCell id="409vcOzin7DSKUUwwrOm-65" value="dp_sortingIndex" style="text;strokeColor=none;fillColor=none;align=left;verticalAlign=middle;spacingLeft=4;spacingRight=4;overflow=hidden;points=[[0,0.5],[1,0.5]];portConstraint=eastwest;rotatable=0;whiteSpace=wrap;html=1;strokeWidth=2;fontStyle=1" vertex="1" parent="409vcOzin7DSKUUwwrOm-62">
          <mxGeometry y="90" width="160" height="30" as="geometry" />
        </mxCell>
        <mxCell id="409vcOzin7DSKUUwwrOm-66" value="dp_photoUrl" style="text;strokeColor=none;fillColor=none;align=left;verticalAlign=middle;spacingLeft=4;spacingRight=4;overflow=hidden;points=[[0,0.5],[1,0.5]];portConstraint=eastwest;rotatable=0;whiteSpace=wrap;html=1;strokeWidth=2;fontStyle=1" vertex="1" parent="409vcOzin7DSKUUwwrOm-62">
          <mxGeometry y="120" width="160" height="30" as="geometry" />
        </mxCell>
        <mxCell id="409vcOzin7DSKUUwwrOm-67" value="dp_urlSegment" style="text;strokeColor=none;fillColor=none;align=left;verticalAlign=middle;spacingLeft=4;spacingRight=4;overflow=hidden;points=[[0,0.5],[1,0.5]];portConstraint=eastwest;rotatable=0;whiteSpace=wrap;html=1;strokeWidth=2;fontStyle=1" vertex="1" parent="409vcOzin7DSKUUwwrOm-62">
          <mxGeometry y="150" width="160" height="30" as="geometry" />
        </mxCell>
        <mxCell id="409vcOzin7DSKUUwwrOm-68" value="dp_seoKeywords" style="text;strokeColor=none;fillColor=none;align=left;verticalAlign=middle;spacingLeft=4;spacingRight=4;overflow=hidden;points=[[0,0.5],[1,0.5]];portConstraint=eastwest;rotatable=0;whiteSpace=wrap;html=1;strokeWidth=2;fontStyle=1" vertex="1" parent="409vcOzin7DSKUUwwrOm-62">
          <mxGeometry y="180" width="160" height="30" as="geometry" />
        </mxCell>
        <mxCell id="409vcOzin7DSKUUwwrOm-69" value="dp_seoDescriptions" style="text;strokeColor=none;fillColor=none;align=left;verticalAlign=middle;spacingLeft=4;spacingRight=4;overflow=hidden;points=[[0,0.5],[1,0.5]];portConstraint=eastwest;rotatable=0;whiteSpace=wrap;html=1;strokeWidth=2;fontStyle=1" vertex="1" parent="409vcOzin7DSKUUwwrOm-62">
          <mxGeometry y="210" width="160" height="30" as="geometry" />
        </mxCell>
        <mxCell id="409vcOzin7DSKUUwwrOm-70" value="dp_isHidden" style="text;strokeColor=none;fillColor=none;align=left;verticalAlign=middle;spacingLeft=4;spacingRight=4;overflow=hidden;points=[[0,0.5],[1,0.5]];portConstraint=eastwest;rotatable=0;whiteSpace=wrap;html=1;strokeWidth=2;fontStyle=1" vertex="1" parent="409vcOzin7DSKUUwwrOm-62">
          <mxGeometry y="240" width="160" height="30" as="geometry" />
        </mxCell>
        <mxCell id="409vcOzin7DSKUUwwrOm-71" value="DP_CTL_ItemCategories" style="swimlane;fontStyle=1;childLayout=stackLayout;horizontal=1;startSize=30;horizontalStack=0;resizeParent=1;resizeParentMax=0;resizeLast=0;collapsible=1;marginBottom=0;whiteSpace=wrap;html=1;strokeWidth=2;" vertex="1" parent="1">
          <mxGeometry x="680" y="720" width="160" height="300" as="geometry" />
        </mxCell>
        <mxCell id="409vcOzin7DSKUUwwrOm-72" value="dp_id" style="text;strokeColor=none;fillColor=none;align=left;verticalAlign=middle;spacingLeft=4;spacingRight=4;overflow=hidden;points=[[0,0.5],[1,0.5]];portConstraint=eastwest;rotatable=0;whiteSpace=wrap;html=1;strokeWidth=2;fontStyle=1" vertex="1" parent="409vcOzin7DSKUUwwrOm-71">
          <mxGeometry y="30" width="160" height="30" as="geometry" />
        </mxCell>
        <mxCell id="409vcOzin7DSKUUwwrOm-73" value="dp_name" style="text;strokeColor=none;fillColor=none;align=left;verticalAlign=middle;spacingLeft=4;spacingRight=4;overflow=hidden;points=[[0,0.5],[1,0.5]];portConstraint=eastwest;rotatable=0;whiteSpace=wrap;html=1;strokeWidth=2;fontStyle=1" vertex="1" parent="409vcOzin7DSKUUwwrOm-71">
          <mxGeometry y="60" width="160" height="30" as="geometry" />
        </mxCell>
        <mxCell id="409vcOzin7DSKUUwwrOm-74" value="dp_sortingIndex" style="text;strokeColor=none;fillColor=none;align=left;verticalAlign=middle;spacingLeft=4;spacingRight=4;overflow=hidden;points=[[0,0.5],[1,0.5]];portConstraint=eastwest;rotatable=0;whiteSpace=wrap;html=1;strokeWidth=2;fontStyle=1" vertex="1" parent="409vcOzin7DSKUUwwrOm-71">
          <mxGeometry y="90" width="160" height="30" as="geometry" />
        </mxCell>
        <mxCell id="409vcOzin7DSKUUwwrOm-75" value="dp_photoUrl" style="text;strokeColor=none;fillColor=none;align=left;verticalAlign=middle;spacingLeft=4;spacingRight=4;overflow=hidden;points=[[0,0.5],[1,0.5]];portConstraint=eastwest;rotatable=0;whiteSpace=wrap;html=1;strokeWidth=2;fontStyle=1" vertex="1" parent="409vcOzin7DSKUUwwrOm-71">
          <mxGeometry y="120" width="160" height="30" as="geometry" />
        </mxCell>
        <mxCell id="409vcOzin7DSKUUwwrOm-76" value="dp_urlSegment" style="text;strokeColor=none;fillColor=none;align=left;verticalAlign=middle;spacingLeft=4;spacingRight=4;overflow=hidden;points=[[0,0.5],[1,0.5]];portConstraint=eastwest;rotatable=0;whiteSpace=wrap;html=1;strokeWidth=2;fontStyle=1" vertex="1" parent="409vcOzin7DSKUUwwrOm-71">
          <mxGeometry y="150" width="160" height="30" as="geometry" />
        </mxCell>
        <mxCell id="409vcOzin7DSKUUwwrOm-77" value="dp_seoKeywords" style="text;strokeColor=none;fillColor=none;align=left;verticalAlign=middle;spacingLeft=4;spacingRight=4;overflow=hidden;points=[[0,0.5],[1,0.5]];portConstraint=eastwest;rotatable=0;whiteSpace=wrap;html=1;strokeWidth=2;fontStyle=1" vertex="1" parent="409vcOzin7DSKUUwwrOm-71">
          <mxGeometry y="180" width="160" height="30" as="geometry" />
        </mxCell>
        <mxCell id="409vcOzin7DSKUUwwrOm-78" value="dp_seoDescriptions" style="text;strokeColor=none;fillColor=none;align=left;verticalAlign=middle;spacingLeft=4;spacingRight=4;overflow=hidden;points=[[0,0.5],[1,0.5]];portConstraint=eastwest;rotatable=0;whiteSpace=wrap;html=1;strokeWidth=2;fontStyle=1" vertex="1" parent="409vcOzin7DSKUUwwrOm-71">
          <mxGeometry y="210" width="160" height="30" as="geometry" />
        </mxCell>
        <mxCell id="409vcOzin7DSKUUwwrOm-79" value="dp_isHidden" style="text;strokeColor=none;fillColor=none;align=left;verticalAlign=middle;spacingLeft=4;spacingRight=4;overflow=hidden;points=[[0,0.5],[1,0.5]];portConstraint=eastwest;rotatable=0;whiteSpace=wrap;html=1;strokeWidth=2;fontStyle=1" vertex="1" parent="409vcOzin7DSKUUwwrOm-71">
          <mxGeometry y="240" width="160" height="30" as="geometry" />
        </mxCell>
        <mxCell id="409vcOzin7DSKUUwwrOm-80" value="dp_itemBrandId" style="text;strokeColor=none;fillColor=none;align=left;verticalAlign=middle;spacingLeft=4;spacingRight=4;overflow=hidden;points=[[0,0.5],[1,0.5]];portConstraint=eastwest;rotatable=0;whiteSpace=wrap;html=1;strokeWidth=2;fontStyle=1" vertex="1" parent="409vcOzin7DSKUUwwrOm-71">
          <mxGeometry y="270" width="160" height="30" as="geometry" />
        </mxCell>
        <mxCell id="409vcOzin7DSKUUwwrOm-81" value="DP_CTL_Items" style="swimlane;fontStyle=1;childLayout=stackLayout;horizontal=1;startSize=30;horizontalStack=0;resizeParent=1;resizeParentMax=0;resizeLast=0;collapsible=1;marginBottom=0;whiteSpace=wrap;html=1;strokeWidth=2;" vertex="1" parent="1">
          <mxGeometry x="920" y="440" width="160" height="300" as="geometry" />
        </mxCell>
        <mxCell id="409vcOzin7DSKUUwwrOm-82" value="dp_id" style="text;strokeColor=none;fillColor=none;align=left;verticalAlign=middle;spacingLeft=4;spacingRight=4;overflow=hidden;points=[[0,0.5],[1,0.5]];portConstraint=eastwest;rotatable=0;whiteSpace=wrap;html=1;strokeWidth=2;fontStyle=1" vertex="1" parent="409vcOzin7DSKUUwwrOm-81">
          <mxGeometry y="30" width="160" height="30" as="geometry" />
        </mxCell>
        <mxCell id="409vcOzin7DSKUUwwrOm-83" value="dp_name" style="text;strokeColor=none;fillColor=none;align=left;verticalAlign=middle;spacingLeft=4;spacingRight=4;overflow=hidden;points=[[0,0.5],[1,0.5]];portConstraint=eastwest;rotatable=0;whiteSpace=wrap;html=1;strokeWidth=2;fontStyle=1" vertex="1" parent="409vcOzin7DSKUUwwrOm-81">
          <mxGeometry y="60" width="160" height="30" as="geometry" />
        </mxCell>
        <mxCell id="409vcOzin7DSKUUwwrOm-84" value="dp_model" style="text;strokeColor=none;fillColor=none;align=left;verticalAlign=middle;spacingLeft=4;spacingRight=4;overflow=hidden;points=[[0,0.5],[1,0.5]];portConstraint=eastwest;rotatable=0;whiteSpace=wrap;html=1;strokeWidth=2;fontStyle=1" vertex="1" parent="409vcOzin7DSKUUwwrOm-81">
          <mxGeometry y="90" width="160" height="30" as="geometry" />
        </mxCell>
        <mxCell id="409vcOzin7DSKUUwwrOm-85" value="dp_cost" style="text;strokeColor=none;fillColor=none;align=left;verticalAlign=middle;spacingLeft=4;spacingRight=4;overflow=hidden;points=[[0,0.5],[1,0.5]];portConstraint=eastwest;rotatable=0;whiteSpace=wrap;html=1;strokeWidth=2;fontStyle=1" vertex="1" parent="409vcOzin7DSKUUwwrOm-81">
          <mxGeometry y="120" width="160" height="30" as="geometry" />
        </mxCell>
        <mxCell id="409vcOzin7DSKUUwwrOm-86" value="dp_photoUrl" style="text;strokeColor=none;fillColor=none;align=left;verticalAlign=middle;spacingLeft=4;spacingRight=4;overflow=hidden;points=[[0,0.5],[1,0.5]];portConstraint=eastwest;rotatable=0;whiteSpace=wrap;html=1;strokeWidth=2;fontStyle=1" vertex="1" parent="409vcOzin7DSKUUwwrOm-81">
          <mxGeometry y="150" width="160" height="30" as="geometry" />
        </mxCell>
        <mxCell id="409vcOzin7DSKUUwwrOm-87" value="dp_seoKeywords" style="text;strokeColor=none;fillColor=none;align=left;verticalAlign=middle;spacingLeft=4;spacingRight=4;overflow=hidden;points=[[0,0.5],[1,0.5]];portConstraint=eastwest;rotatable=0;whiteSpace=wrap;html=1;strokeWidth=2;fontStyle=1" vertex="1" parent="409vcOzin7DSKUUwwrOm-81">
          <mxGeometry y="180" width="160" height="30" as="geometry" />
        </mxCell>
        <mxCell id="409vcOzin7DSKUUwwrOm-88" value="dp_seoDescriptions" style="text;strokeColor=none;fillColor=none;align=left;verticalAlign=middle;spacingLeft=4;spacingRight=4;overflow=hidden;points=[[0,0.5],[1,0.5]];portConstraint=eastwest;rotatable=0;whiteSpace=wrap;html=1;strokeWidth=2;fontStyle=1" vertex="1" parent="409vcOzin7DSKUUwwrOm-81">
          <mxGeometry y="210" width="160" height="30" as="geometry" />
        </mxCell>
        <mxCell id="409vcOzin7DSKUUwwrOm-89" value="dp_isHidden" style="text;strokeColor=none;fillColor=none;align=left;verticalAlign=middle;spacingLeft=4;spacingRight=4;overflow=hidden;points=[[0,0.5],[1,0.5]];portConstraint=eastwest;rotatable=0;whiteSpace=wrap;html=1;strokeWidth=2;fontStyle=1" vertex="1" parent="409vcOzin7DSKUUwwrOm-81">
          <mxGeometry y="240" width="160" height="30" as="geometry" />
        </mxCell>
        <mxCell id="409vcOzin7DSKUUwwrOm-90" value="dp_itemCategoryId" style="text;strokeColor=none;fillColor=none;align=left;verticalAlign=middle;spacingLeft=4;spacingRight=4;overflow=hidden;points=[[0,0.5],[1,0.5]];portConstraint=eastwest;rotatable=0;whiteSpace=wrap;html=1;strokeWidth=2;fontStyle=1" vertex="1" parent="409vcOzin7DSKUUwwrOm-81">
          <mxGeometry y="270" width="160" height="30" as="geometry" />
        </mxCell>
        <mxCell id="409vcOzin7DSKUUwwrOm-91" value="DP_LST_ItemGalery" style="swimlane;fontStyle=1;childLayout=stackLayout;horizontal=1;startSize=30;horizontalStack=0;resizeParent=1;resizeParentMax=0;resizeLast=0;collapsible=1;marginBottom=0;whiteSpace=wrap;html=1;strokeWidth=2;" vertex="1" parent="1">
          <mxGeometry x="1120" y="680" width="120" height="120" as="geometry" />
        </mxCell>
        <mxCell id="409vcOzin7DSKUUwwrOm-92" value="dp_id" style="text;strokeColor=none;fillColor=none;align=left;verticalAlign=middle;spacingLeft=4;spacingRight=4;overflow=hidden;points=[[0,0.5],[1,0.5]];portConstraint=eastwest;rotatable=0;whiteSpace=wrap;html=1;strokeWidth=2;fontStyle=1" vertex="1" parent="409vcOzin7DSKUUwwrOm-91">
          <mxGeometry y="30" width="120" height="30" as="geometry" />
        </mxCell>
        <mxCell id="409vcOzin7DSKUUwwrOm-93" value="dp_itemId" style="text;strokeColor=none;fillColor=none;align=left;verticalAlign=middle;spacingLeft=4;spacingRight=4;overflow=hidden;points=[[0,0.5],[1,0.5]];portConstraint=eastwest;rotatable=0;whiteSpace=wrap;html=1;strokeWidth=2;fontStyle=1" vertex="1" parent="409vcOzin7DSKUUwwrOm-91">
          <mxGeometry y="60" width="120" height="30" as="geometry" />
        </mxCell>
        <mxCell id="409vcOzin7DSKUUwwrOm-94" value="dp_photoUrl" style="text;strokeColor=none;fillColor=none;align=left;verticalAlign=middle;spacingLeft=4;spacingRight=4;overflow=hidden;points=[[0,0.5],[1,0.5]];portConstraint=eastwest;rotatable=0;whiteSpace=wrap;html=1;strokeWidth=2;fontStyle=1" vertex="1" parent="409vcOzin7DSKUUwwrOm-91">
          <mxGeometry y="90" width="120" height="30" as="geometry" />
        </mxCell>
        <mxCell id="409vcOzin7DSKUUwwrOm-101" value="DP_LST_ItemCharacteristics" style="swimlane;fontStyle=1;childLayout=stackLayout;horizontal=1;startSize=30;horizontalStack=0;resizeParent=1;resizeParentMax=0;resizeLast=0;collapsible=1;marginBottom=0;whiteSpace=wrap;html=1;strokeWidth=2;" vertex="1" parent="1">
          <mxGeometry x="1120" y="840" width="200" height="150" as="geometry" />
        </mxCell>
        <mxCell id="409vcOzin7DSKUUwwrOm-102" value="dp_id" style="text;strokeColor=none;fillColor=none;align=left;verticalAlign=middle;spacingLeft=4;spacingRight=4;overflow=hidden;points=[[0,0.5],[1,0.5]];portConstraint=eastwest;rotatable=0;whiteSpace=wrap;html=1;strokeWidth=2;fontStyle=1" vertex="1" parent="409vcOzin7DSKUUwwrOm-101">
          <mxGeometry y="30" width="200" height="30" as="geometry" />
        </mxCell>
        <mxCell id="409vcOzin7DSKUUwwrOm-103" value="dp_itemId" style="text;strokeColor=none;fillColor=none;align=left;verticalAlign=middle;spacingLeft=4;spacingRight=4;overflow=hidden;points=[[0,0.5],[1,0.5]];portConstraint=eastwest;rotatable=0;whiteSpace=wrap;html=1;strokeWidth=2;fontStyle=1" vertex="1" parent="409vcOzin7DSKUUwwrOm-101">
          <mxGeometry y="60" width="200" height="30" as="geometry" />
        </mxCell>
        <mxCell id="409vcOzin7DSKUUwwrOm-104" value="dp_characteristicsId" style="text;strokeColor=none;fillColor=none;align=left;verticalAlign=middle;spacingLeft=4;spacingRight=4;overflow=hidden;points=[[0,0.5],[1,0.5]];portConstraint=eastwest;rotatable=0;whiteSpace=wrap;html=1;strokeWidth=2;fontStyle=1" vertex="1" parent="409vcOzin7DSKUUwwrOm-101">
          <mxGeometry y="90" width="200" height="30" as="geometry" />
        </mxCell>
        <mxCell id="409vcOzin7DSKUUwwrOm-105" value="dp_value" style="text;strokeColor=none;fillColor=none;align=left;verticalAlign=middle;spacingLeft=4;spacingRight=4;overflow=hidden;points=[[0,0.5],[1,0.5]];portConstraint=eastwest;rotatable=0;whiteSpace=wrap;html=1;strokeWidth=2;fontStyle=1" vertex="1" parent="409vcOzin7DSKUUwwrOm-101">
          <mxGeometry y="120" width="200" height="30" as="geometry" />
        </mxCell>
        <mxCell id="409vcOzin7DSKUUwwrOm-106" value="DP_CTL_ItemCharacteristics" style="swimlane;fontStyle=1;childLayout=stackLayout;horizontal=1;startSize=30;horizontalStack=0;resizeParent=1;resizeParentMax=0;resizeLast=0;collapsible=1;marginBottom=0;whiteSpace=wrap;html=1;strokeWidth=2;" vertex="1" parent="1">
          <mxGeometry x="880" y="900" width="200" height="90" as="geometry" />
        </mxCell>
        <mxCell id="409vcOzin7DSKUUwwrOm-107" value="dp_id" style="text;strokeColor=none;fillColor=none;align=left;verticalAlign=middle;spacingLeft=4;spacingRight=4;overflow=hidden;points=[[0,0.5],[1,0.5]];portConstraint=eastwest;rotatable=0;whiteSpace=wrap;html=1;strokeWidth=2;fontStyle=1" vertex="1" parent="409vcOzin7DSKUUwwrOm-106">
          <mxGeometry y="30" width="200" height="30" as="geometry" />
        </mxCell>
        <mxCell id="409vcOzin7DSKUUwwrOm-108" value="dp_name" style="text;strokeColor=none;fillColor=none;align=left;verticalAlign=middle;spacingLeft=4;spacingRight=4;overflow=hidden;points=[[0,0.5],[1,0.5]];portConstraint=eastwest;rotatable=0;whiteSpace=wrap;html=1;strokeWidth=2;fontStyle=1" vertex="1" parent="409vcOzin7DSKUUwwrOm-106">
          <mxGeometry y="60" width="200" height="30" as="geometry" />
        </mxCell>
        <mxCell id="409vcOzin7DSKUUwwrOm-111" value="DP_DOC_Orders" style="swimlane;fontStyle=1;childLayout=stackLayout;horizontal=1;startSize=30;horizontalStack=0;resizeParent=1;resizeParentMax=0;resizeLast=0;collapsible=1;marginBottom=0;whiteSpace=wrap;html=1;strokeWidth=2;" vertex="1" parent="1">
          <mxGeometry x="520" y="440" width="120" height="180" as="geometry" />
        </mxCell>
        <mxCell id="409vcOzin7DSKUUwwrOm-112" value="dp_id" style="text;strokeColor=none;fillColor=none;align=left;verticalAlign=middle;spacingLeft=4;spacingRight=4;overflow=hidden;points=[[0,0.5],[1,0.5]];portConstraint=eastwest;rotatable=0;whiteSpace=wrap;html=1;strokeWidth=2;fontStyle=1" vertex="1" parent="409vcOzin7DSKUUwwrOm-111">
          <mxGeometry y="30" width="120" height="30" as="geometry" />
        </mxCell>
        <mxCell id="409vcOzin7DSKUUwwrOm-113" value="dp_date" style="text;strokeColor=none;fillColor=none;align=left;verticalAlign=middle;spacingLeft=4;spacingRight=4;overflow=hidden;points=[[0,0.5],[1,0.5]];portConstraint=eastwest;rotatable=0;whiteSpace=wrap;html=1;strokeWidth=2;fontStyle=1" vertex="1" parent="409vcOzin7DSKUUwwrOm-111">
          <mxGeometry y="60" width="120" height="30" as="geometry" />
        </mxCell>
        <mxCell id="409vcOzin7DSKUUwwrOm-114" value="dp_userId" style="text;strokeColor=none;fillColor=none;align=left;verticalAlign=middle;spacingLeft=4;spacingRight=4;overflow=hidden;points=[[0,0.5],[1,0.5]];portConstraint=eastwest;rotatable=0;whiteSpace=wrap;html=1;strokeWidth=2;fontStyle=1" vertex="1" parent="409vcOzin7DSKUUwwrOm-111">
          <mxGeometry y="90" width="120" height="30" as="geometry" />
        </mxCell>
        <mxCell id="409vcOzin7DSKUUwwrOm-115" value="dp_isCanceled" style="text;strokeColor=none;fillColor=none;align=left;verticalAlign=middle;spacingLeft=4;spacingRight=4;overflow=hidden;points=[[0,0.5],[1,0.5]];portConstraint=eastwest;rotatable=0;whiteSpace=wrap;html=1;strokeWidth=2;fontStyle=1" vertex="1" parent="409vcOzin7DSKUUwwrOm-111">
          <mxGeometry y="120" width="120" height="30" as="geometry" />
        </mxCell>
        <mxCell id="409vcOzin7DSKUUwwrOm-116" value="dp_isCompleted" style="text;strokeColor=none;fillColor=none;align=left;verticalAlign=middle;spacingLeft=4;spacingRight=4;overflow=hidden;points=[[0,0.5],[1,0.5]];portConstraint=eastwest;rotatable=0;whiteSpace=wrap;html=1;strokeWidth=2;fontStyle=1" vertex="1" parent="409vcOzin7DSKUUwwrOm-111">
          <mxGeometry y="150" width="120" height="30" as="geometry" />
        </mxCell>
        <mxCell id="409vcOzin7DSKUUwwrOm-119" value="DP_LST_OrderItems" style="swimlane;fontStyle=1;childLayout=stackLayout;horizontal=1;startSize=30;horizontalStack=0;resizeParent=1;resizeParentMax=0;resizeLast=0;collapsible=1;marginBottom=0;whiteSpace=wrap;html=1;strokeWidth=2;" vertex="1" parent="1">
          <mxGeometry x="720" y="440" width="120" height="180" as="geometry" />
        </mxCell>
        <mxCell id="409vcOzin7DSKUUwwrOm-120" value="dp_id" style="text;strokeColor=none;fillColor=none;align=left;verticalAlign=middle;spacingLeft=4;spacingRight=4;overflow=hidden;points=[[0,0.5],[1,0.5]];portConstraint=eastwest;rotatable=0;whiteSpace=wrap;html=1;strokeWidth=2;fontStyle=1" vertex="1" parent="409vcOzin7DSKUUwwrOm-119">
          <mxGeometry y="30" width="120" height="30" as="geometry" />
        </mxCell>
        <mxCell id="409vcOzin7DSKUUwwrOm-121" value="dp_orderId" style="text;strokeColor=none;fillColor=none;align=left;verticalAlign=middle;spacingLeft=4;spacingRight=4;overflow=hidden;points=[[0,0.5],[1,0.5]];portConstraint=eastwest;rotatable=0;whiteSpace=wrap;html=1;strokeWidth=2;fontStyle=1" vertex="1" parent="409vcOzin7DSKUUwwrOm-119">
          <mxGeometry y="60" width="120" height="30" as="geometry" />
        </mxCell>
        <mxCell id="409vcOzin7DSKUUwwrOm-122" value="dp_itemId" style="text;strokeColor=none;fillColor=none;align=left;verticalAlign=middle;spacingLeft=4;spacingRight=4;overflow=hidden;points=[[0,0.5],[1,0.5]];portConstraint=eastwest;rotatable=0;whiteSpace=wrap;html=1;strokeWidth=2;fontStyle=1" vertex="1" parent="409vcOzin7DSKUUwwrOm-119">
          <mxGeometry y="90" width="120" height="30" as="geometry" />
        </mxCell>
        <mxCell id="409vcOzin7DSKUUwwrOm-123" value="dp_count" style="text;strokeColor=none;fillColor=none;align=left;verticalAlign=middle;spacingLeft=4;spacingRight=4;overflow=hidden;points=[[0,0.5],[1,0.5]];portConstraint=eastwest;rotatable=0;whiteSpace=wrap;html=1;strokeWidth=2;fontStyle=1" vertex="1" parent="409vcOzin7DSKUUwwrOm-119">
          <mxGeometry y="120" width="120" height="30" as="geometry" />
        </mxCell>
        <mxCell id="409vcOzin7DSKUUwwrOm-124" value="dp_cost" style="text;strokeColor=none;fillColor=none;align=left;verticalAlign=middle;spacingLeft=4;spacingRight=4;overflow=hidden;points=[[0,0.5],[1,0.5]];portConstraint=eastwest;rotatable=0;whiteSpace=wrap;html=1;strokeWidth=2;fontStyle=1" vertex="1" parent="409vcOzin7DSKUUwwrOm-119">
          <mxGeometry y="150" width="120" height="30" as="geometry" />
        </mxCell>
        <mxCell id="409vcOzin7DSKUUwwrOm-125" value="DP_DOC_OrderStatuses" style="swimlane;fontStyle=1;childLayout=stackLayout;horizontal=1;startSize=30;horizontalStack=0;resizeParent=1;resizeParentMax=0;resizeLast=0;collapsible=1;marginBottom=0;whiteSpace=wrap;html=1;strokeWidth=2;" vertex="1" parent="1">
          <mxGeometry x="1120" y="490" width="160" height="150" as="geometry" />
        </mxCell>
        <mxCell id="409vcOzin7DSKUUwwrOm-126" value="dp_id" style="text;strokeColor=none;fillColor=none;align=left;verticalAlign=middle;spacingLeft=4;spacingRight=4;overflow=hidden;points=[[0,0.5],[1,0.5]];portConstraint=eastwest;rotatable=0;whiteSpace=wrap;html=1;strokeWidth=2;fontStyle=1" vertex="1" parent="409vcOzin7DSKUUwwrOm-125">
          <mxGeometry y="30" width="160" height="30" as="geometry" />
        </mxCell>
        <mxCell id="409vcOzin7DSKUUwwrOm-127" value="dp_date" style="text;strokeColor=none;fillColor=none;align=left;verticalAlign=middle;spacingLeft=4;spacingRight=4;overflow=hidden;points=[[0,0.5],[1,0.5]];portConstraint=eastwest;rotatable=0;whiteSpace=wrap;html=1;strokeWidth=2;fontStyle=1" vertex="1" parent="409vcOzin7DSKUUwwrOm-125">
          <mxGeometry y="60" width="160" height="30" as="geometry" />
        </mxCell>
        <mxCell id="409vcOzin7DSKUUwwrOm-128" value="dp_status" style="text;strokeColor=none;fillColor=none;align=left;verticalAlign=middle;spacingLeft=4;spacingRight=4;overflow=hidden;points=[[0,0.5],[1,0.5]];portConstraint=eastwest;rotatable=0;whiteSpace=wrap;html=1;strokeWidth=2;fontStyle=1" vertex="1" parent="409vcOzin7DSKUUwwrOm-125">
          <mxGeometry y="90" width="160" height="30" as="geometry" />
        </mxCell>
        <mxCell id="409vcOzin7DSKUUwwrOm-129" value="dp_orderId" style="text;strokeColor=none;fillColor=none;align=left;verticalAlign=middle;spacingLeft=4;spacingRight=4;overflow=hidden;points=[[0,0.5],[1,0.5]];portConstraint=eastwest;rotatable=0;whiteSpace=wrap;html=1;strokeWidth=2;fontStyle=1" vertex="1" parent="409vcOzin7DSKUUwwrOm-125">
          <mxGeometry y="120" width="160" height="30" as="geometry" />
        </mxCell>
        <mxCell id="409vcOzin7DSKUUwwrOm-133" style="edgeStyle=orthogonalEdgeStyle;rounded=0;orthogonalLoop=1;jettySize=auto;html=1;exitX=1;exitY=0.5;exitDx=0;exitDy=0;entryX=1;entryY=0.5;entryDx=0;entryDy=0;startArrow=ERone;startFill=0;endArrow=ERzeroToMany;endFill=0;strokeWidth=2;fontStyle=1" edge="1" parent="1" source="409vcOzin7DSKUUwwrOm-2" target="409vcOzin7DSKUUwwrOm-58">
          <mxGeometry relative="1" as="geometry">
            <Array as="points">
              <mxPoint x="240" y="125" />
              <mxPoint x="240" y="605" />
            </Array>
          </mxGeometry>
        </mxCell>
        <mxCell id="409vcOzin7DSKUUwwrOm-134" style="edgeStyle=orthogonalEdgeStyle;rounded=0;orthogonalLoop=1;jettySize=auto;html=1;exitX=1;exitY=0.5;exitDx=0;exitDy=0;entryX=0;entryY=0.5;entryDx=0;entryDy=0;startArrow=ERone;startFill=0;endArrow=ERone;endFill=0;strokeWidth=2;fontStyle=1" edge="1" parent="1" source="409vcOzin7DSKUUwwrOm-2" target="409vcOzin7DSKUUwwrOm-19">
          <mxGeometry relative="1" as="geometry" />
        </mxCell>
        <mxCell id="409vcOzin7DSKUUwwrOm-135" style="edgeStyle=orthogonalEdgeStyle;rounded=0;orthogonalLoop=1;jettySize=auto;html=1;exitX=1;exitY=0.5;exitDx=0;exitDy=0;entryX=0;entryY=0.5;entryDx=0;entryDy=0;startArrow=ERone;startFill=0;endArrow=ERzeroToMany;endFill=0;strokeWidth=2;fontStyle=1" edge="1" parent="1" source="409vcOzin7DSKUUwwrOm-2" target="409vcOzin7DSKUUwwrOm-36">
          <mxGeometry relative="1" as="geometry" />
        </mxCell>
        <mxCell id="409vcOzin7DSKUUwwrOm-136" style="edgeStyle=orthogonalEdgeStyle;rounded=0;orthogonalLoop=1;jettySize=auto;html=1;exitX=1;exitY=0.5;exitDx=0;exitDy=0;entryX=0;entryY=0.5;entryDx=0;entryDy=0;startArrow=ERone;startFill=0;endArrow=ERzeroToMany;endFill=0;strokeWidth=2;fontStyle=1" edge="1" parent="1" source="409vcOzin7DSKUUwwrOm-2" target="409vcOzin7DSKUUwwrOm-43">
          <mxGeometry relative="1" as="geometry" />
        </mxCell>
        <mxCell id="409vcOzin7DSKUUwwrOm-138" style="edgeStyle=orthogonalEdgeStyle;rounded=0;orthogonalLoop=1;jettySize=auto;html=1;exitX=1;exitY=0.5;exitDx=0;exitDy=0;entryX=0;entryY=0.5;entryDx=0;entryDy=0;startArrow=ERone;startFill=0;endArrow=ERzeroToMany;endFill=0;strokeWidth=2;fontStyle=1" edge="1" parent="1" source="409vcOzin7DSKUUwwrOm-2" target="409vcOzin7DSKUUwwrOm-55">
          <mxGeometry relative="1" as="geometry">
            <Array as="points">
              <mxPoint x="240" y="125" />
              <mxPoint x="240" y="275" />
            </Array>
          </mxGeometry>
        </mxCell>
        <mxCell id="409vcOzin7DSKUUwwrOm-139" style="edgeStyle=orthogonalEdgeStyle;rounded=0;orthogonalLoop=1;jettySize=auto;html=1;exitX=0;exitY=0.5;exitDx=0;exitDy=0;entryX=1;entryY=0.5;entryDx=0;entryDy=0;startArrow=ERone;startFill=0;endArrow=ERoneToMany;endFill=0;strokeWidth=2;fontStyle=1" edge="1" parent="1" source="409vcOzin7DSKUUwwrOm-46" target="409vcOzin7DSKUUwwrOm-56">
          <mxGeometry relative="1" as="geometry" />
        </mxCell>
        <mxCell id="409vcOzin7DSKUUwwrOm-140" style="edgeStyle=orthogonalEdgeStyle;rounded=0;orthogonalLoop=1;jettySize=auto;html=1;exitX=1;exitY=0.5;exitDx=0;exitDy=0;entryX=0;entryY=0.5;entryDx=0;entryDy=0;startArrow=ERone;startFill=0;endArrow=ERzeroToMany;endFill=0;strokeWidth=2;fontStyle=1" edge="1" parent="1" source="409vcOzin7DSKUUwwrOm-2" target="409vcOzin7DSKUUwwrOm-114">
          <mxGeometry relative="1" as="geometry">
            <Array as="points">
              <mxPoint x="240" y="125" />
              <mxPoint x="240" y="545" />
            </Array>
          </mxGeometry>
        </mxCell>
        <mxCell id="409vcOzin7DSKUUwwrOm-141" style="edgeStyle=orthogonalEdgeStyle;rounded=0;orthogonalLoop=1;jettySize=auto;html=1;exitX=1;exitY=0.5;exitDx=0;exitDy=0;entryX=0;entryY=0.5;entryDx=0;entryDy=0;startArrow=ERone;startFill=0;endArrow=ERoneToMany;endFill=0;strokeWidth=2;fontStyle=1" edge="1" parent="1" source="409vcOzin7DSKUUwwrOm-112" target="409vcOzin7DSKUUwwrOm-121">
          <mxGeometry relative="1" as="geometry" />
        </mxCell>
        <mxCell id="409vcOzin7DSKUUwwrOm-142" style="edgeStyle=orthogonalEdgeStyle;rounded=0;orthogonalLoop=1;jettySize=auto;html=1;exitX=0;exitY=0.5;exitDx=0;exitDy=0;entryX=1;entryY=0.5;entryDx=0;entryDy=0;startArrow=ERone;startFill=0;endArrow=ERmany;endFill=0;strokeWidth=2;fontStyle=1" edge="1" parent="1" source="409vcOzin7DSKUUwwrOm-82" target="409vcOzin7DSKUUwwrOm-122">
          <mxGeometry relative="1" as="geometry" />
        </mxCell>
        <mxCell id="409vcOzin7DSKUUwwrOm-143" style="edgeStyle=orthogonalEdgeStyle;rounded=0;orthogonalLoop=1;jettySize=auto;html=1;exitX=1;exitY=0.5;exitDx=0;exitDy=0;entryX=0;entryY=0.5;entryDx=0;entryDy=0;startArrow=ERone;startFill=0;endArrow=ERzeroToMany;endFill=0;strokeWidth=2;fontStyle=1" edge="1" parent="1" source="409vcOzin7DSKUUwwrOm-72" target="409vcOzin7DSKUUwwrOm-90">
          <mxGeometry relative="1" as="geometry" />
        </mxCell>
        <mxCell id="409vcOzin7DSKUUwwrOm-144" style="edgeStyle=orthogonalEdgeStyle;rounded=0;orthogonalLoop=1;jettySize=auto;html=1;exitX=1;exitY=0.5;exitDx=0;exitDy=0;entryX=0;entryY=0.5;entryDx=0;entryDy=0;startArrow=ERone;startFill=0;endArrow=ERzeroToMany;endFill=0;strokeWidth=2;fontStyle=1" edge="1" parent="1" source="409vcOzin7DSKUUwwrOm-63" target="409vcOzin7DSKUUwwrOm-80">
          <mxGeometry relative="1" as="geometry" />
        </mxCell>
        <mxCell id="409vcOzin7DSKUUwwrOm-145" style="edgeStyle=orthogonalEdgeStyle;rounded=0;orthogonalLoop=1;jettySize=auto;html=1;exitX=1;exitY=0.5;exitDx=0;exitDy=0;entryX=0;entryY=0.5;entryDx=0;entryDy=0;startArrow=ERone;startFill=0;endArrow=ERzeroToMany;endFill=0;strokeWidth=2;fontStyle=1" edge="1" parent="1" source="409vcOzin7DSKUUwwrOm-82" target="409vcOzin7DSKUUwwrOm-129">
          <mxGeometry relative="1" as="geometry" />
        </mxCell>
        <mxCell id="409vcOzin7DSKUUwwrOm-146" style="edgeStyle=orthogonalEdgeStyle;rounded=0;orthogonalLoop=1;jettySize=auto;html=1;exitX=1;exitY=0.5;exitDx=0;exitDy=0;entryX=0;entryY=0.5;entryDx=0;entryDy=0;startArrow=ERone;startFill=0;endArrow=ERzeroToMany;endFill=0;strokeWidth=2;fontStyle=1" edge="1" parent="1" source="409vcOzin7DSKUUwwrOm-82" target="409vcOzin7DSKUUwwrOm-93">
          <mxGeometry relative="1" as="geometry" />
        </mxCell>
        <mxCell id="409vcOzin7DSKUUwwrOm-147" style="edgeStyle=orthogonalEdgeStyle;rounded=0;orthogonalLoop=1;jettySize=auto;html=1;exitX=1;exitY=0.5;exitDx=0;exitDy=0;entryX=0;entryY=0.5;entryDx=0;entryDy=0;startArrow=ERone;startFill=0;endArrow=ERzeroToMany;endFill=0;strokeWidth=2;fontStyle=1" edge="1" parent="1" source="409vcOzin7DSKUUwwrOm-82" target="409vcOzin7DSKUUwwrOm-103">
          <mxGeometry relative="1" as="geometry" />
        </mxCell>
        <mxCell id="409vcOzin7DSKUUwwrOm-148" style="edgeStyle=orthogonalEdgeStyle;rounded=0;orthogonalLoop=1;jettySize=auto;html=1;exitX=1;exitY=0.5;exitDx=0;exitDy=0;entryX=0;entryY=0.5;entryDx=0;entryDy=0;startArrow=ERone;startFill=0;endArrow=ERoneToMany;endFill=0;strokeWidth=2;fontStyle=1" edge="1" parent="1" source="409vcOzin7DSKUUwwrOm-107" target="409vcOzin7DSKUUwwrOm-104">
          <mxGeometry relative="1" as="geometry" />
        </mxCell>
        <mxCell id="409vcOzin7DSKUUwwrOm-149" value="DP_CTL_Helpers" style="swimlane;fontStyle=1;childLayout=stackLayout;horizontal=1;startSize=30;horizontalStack=0;resizeParent=1;resizeParentMax=0;resizeLast=0;collapsible=1;marginBottom=0;whiteSpace=wrap;html=1;strokeWidth=2;" vertex="1" parent="1">
          <mxGeometry x="680" y="80" width="120" height="150" as="geometry" />
        </mxCell>
        <mxCell id="409vcOzin7DSKUUwwrOm-150" value="dp_id" style="text;strokeColor=none;fillColor=none;align=left;verticalAlign=middle;spacingLeft=4;spacingRight=4;overflow=hidden;points=[[0,0.5],[1,0.5]];portConstraint=eastwest;rotatable=0;whiteSpace=wrap;html=1;strokeWidth=2;fontStyle=1" vertex="1" parent="409vcOzin7DSKUUwwrOm-149">
          <mxGeometry y="30" width="120" height="30" as="geometry" />
        </mxCell>
        <mxCell id="409vcOzin7DSKUUwwrOm-151" value="dp_date" style="text;strokeColor=none;fillColor=none;align=left;verticalAlign=middle;spacingLeft=4;spacingRight=4;overflow=hidden;points=[[0,0.5],[1,0.5]];portConstraint=eastwest;rotatable=0;whiteSpace=wrap;html=1;strokeWidth=2;fontStyle=1" vertex="1" parent="409vcOzin7DSKUUwwrOm-149">
          <mxGeometry y="60" width="120" height="30" as="geometry" />
        </mxCell>
        <mxCell id="409vcOzin7DSKUUwwrOm-152" value="dp_description" style="text;strokeColor=none;fillColor=none;align=left;verticalAlign=middle;spacingLeft=4;spacingRight=4;overflow=hidden;points=[[0,0.5],[1,0.5]];portConstraint=eastwest;rotatable=0;whiteSpace=wrap;html=1;strokeWidth=2;fontStyle=1" vertex="1" parent="409vcOzin7DSKUUwwrOm-149">
          <mxGeometry y="90" width="120" height="30" as="geometry" />
        </mxCell>
        <mxCell id="409vcOzin7DSKUUwwrOm-153" value="dp_isHidden" style="text;strokeColor=none;fillColor=none;align=left;verticalAlign=middle;spacingLeft=4;spacingRight=4;overflow=hidden;points=[[0,0.5],[1,0.5]];portConstraint=eastwest;rotatable=0;whiteSpace=wrap;html=1;strokeWidth=2;fontStyle=1" vertex="1" parent="409vcOzin7DSKUUwwrOm-149">
          <mxGeometry y="120" width="120" height="30" as="geometry" />
        </mxCell>
        <mxCell id="409vcOzin7DSKUUwwrOm-155" value="DP_CTL_ContactTypes" style="swimlane;fontStyle=1;childLayout=stackLayout;horizontal=1;startSize=30;horizontalStack=0;resizeParent=1;resizeParentMax=0;resizeLast=0;collapsible=1;marginBottom=0;whiteSpace=wrap;html=1;strokeWidth=2;" vertex="1" parent="1">
          <mxGeometry x="1120" y="80" width="160" height="90" as="geometry" />
        </mxCell>
        <mxCell id="409vcOzin7DSKUUwwrOm-156" value="dp_id" style="text;strokeColor=none;fillColor=none;align=left;verticalAlign=middle;spacingLeft=4;spacingRight=4;overflow=hidden;points=[[0,0.5],[1,0.5]];portConstraint=eastwest;rotatable=0;whiteSpace=wrap;html=1;strokeWidth=2;fontStyle=1" vertex="1" parent="409vcOzin7DSKUUwwrOm-155">
          <mxGeometry y="30" width="160" height="30" as="geometry" />
        </mxCell>
        <mxCell id="409vcOzin7DSKUUwwrOm-157" value="dp_name" style="text;strokeColor=none;fillColor=none;align=left;verticalAlign=middle;spacingLeft=4;spacingRight=4;overflow=hidden;points=[[0,0.5],[1,0.5]];portConstraint=eastwest;rotatable=0;whiteSpace=wrap;html=1;strokeWidth=2;fontStyle=1" vertex="1" parent="409vcOzin7DSKUUwwrOm-155">
          <mxGeometry y="60" width="160" height="30" as="geometry" />
        </mxCell>
        <mxCell id="409vcOzin7DSKUUwwrOm-160" value="DP_LST_HelperContacts" style="swimlane;fontStyle=1;childLayout=stackLayout;horizontal=1;startSize=30;horizontalStack=0;resizeParent=1;resizeParentMax=0;resizeLast=0;collapsible=1;marginBottom=0;whiteSpace=wrap;html=1;strokeWidth=2;" vertex="1" parent="1">
          <mxGeometry x="880" y="80" width="160" height="150" as="geometry" />
        </mxCell>
        <mxCell id="409vcOzin7DSKUUwwrOm-161" value="dp_id" style="text;strokeColor=none;fillColor=none;align=left;verticalAlign=middle;spacingLeft=4;spacingRight=4;overflow=hidden;points=[[0,0.5],[1,0.5]];portConstraint=eastwest;rotatable=0;whiteSpace=wrap;html=1;strokeWidth=2;fontStyle=1" vertex="1" parent="409vcOzin7DSKUUwwrOm-160">
          <mxGeometry y="30" width="160" height="30" as="geometry" />
        </mxCell>
        <mxCell id="409vcOzin7DSKUUwwrOm-162" value="dp_helperId" style="text;strokeColor=none;fillColor=none;align=left;verticalAlign=middle;spacingLeft=4;spacingRight=4;overflow=hidden;points=[[0,0.5],[1,0.5]];portConstraint=eastwest;rotatable=0;whiteSpace=wrap;html=1;strokeWidth=2;fontStyle=1" vertex="1" parent="409vcOzin7DSKUUwwrOm-160">
          <mxGeometry y="60" width="160" height="30" as="geometry" />
        </mxCell>
        <mxCell id="409vcOzin7DSKUUwwrOm-163" value="dp_contactType" style="text;strokeColor=none;fillColor=none;align=left;verticalAlign=middle;spacingLeft=4;spacingRight=4;overflow=hidden;points=[[0,0.5],[1,0.5]];portConstraint=eastwest;rotatable=0;whiteSpace=wrap;html=1;strokeWidth=2;fontStyle=1" vertex="1" parent="409vcOzin7DSKUUwwrOm-160">
          <mxGeometry y="90" width="160" height="30" as="geometry" />
        </mxCell>
        <mxCell id="409vcOzin7DSKUUwwrOm-164" value="dp_value" style="text;strokeColor=none;fillColor=none;align=left;verticalAlign=middle;spacingLeft=4;spacingRight=4;overflow=hidden;points=[[0,0.5],[1,0.5]];portConstraint=eastwest;rotatable=0;whiteSpace=wrap;html=1;strokeWidth=2;fontStyle=1" vertex="1" parent="409vcOzin7DSKUUwwrOm-160">
          <mxGeometry y="120" width="160" height="30" as="geometry" />
        </mxCell>
        <mxCell id="409vcOzin7DSKUUwwrOm-167" style="edgeStyle=orthogonalEdgeStyle;rounded=0;orthogonalLoop=1;jettySize=auto;html=1;exitX=1;exitY=0.5;exitDx=0;exitDy=0;entryX=0;entryY=0.5;entryDx=0;entryDy=0;startArrow=ERone;startFill=0;endArrow=ERzeroToMany;endFill=0;strokeWidth=2;fontStyle=1" edge="1" parent="1" source="409vcOzin7DSKUUwwrOm-150" target="409vcOzin7DSKUUwwrOm-162">
          <mxGeometry relative="1" as="geometry" />
        </mxCell>
        <mxCell id="409vcOzin7DSKUUwwrOm-168" style="edgeStyle=orthogonalEdgeStyle;rounded=0;orthogonalLoop=1;jettySize=auto;html=1;exitX=0;exitY=0.5;exitDx=0;exitDy=0;entryX=1;entryY=0.5;entryDx=0;entryDy=0;startArrow=ERone;startFill=0;endArrow=ERoneToMany;endFill=0;strokeWidth=2;fontStyle=1" edge="1" parent="1" source="409vcOzin7DSKUUwwrOm-156" target="409vcOzin7DSKUUwwrOm-163">
          <mxGeometry relative="1" as="geometry" />
        </mxCell>
        <mxCell id="409vcOzin7DSKUUwwrOm-174" value="DP_DOC_Articles" style="swimlane;fontStyle=1;childLayout=stackLayout;horizontal=1;startSize=30;horizontalStack=0;resizeParent=1;resizeParentMax=0;resizeLast=0;collapsible=1;marginBottom=0;whiteSpace=wrap;html=1;strokeWidth=2;" vertex="1" parent="1">
          <mxGeometry x="1120" y="200" width="200" height="240" as="geometry" />
        </mxCell>
        <mxCell id="409vcOzin7DSKUUwwrOm-175" value="dp_id" style="text;strokeColor=none;fillColor=none;align=left;verticalAlign=middle;spacingLeft=4;spacingRight=4;overflow=hidden;points=[[0,0.5],[1,0.5]];portConstraint=eastwest;rotatable=0;whiteSpace=wrap;html=1;strokeWidth=2;fontStyle=1" vertex="1" parent="409vcOzin7DSKUUwwrOm-174">
          <mxGeometry y="30" width="200" height="30" as="geometry" />
        </mxCell>
        <mxCell id="409vcOzin7DSKUUwwrOm-176" value="dp_date" style="text;strokeColor=none;fillColor=none;align=left;verticalAlign=middle;spacingLeft=4;spacingRight=4;overflow=hidden;points=[[0,0.5],[1,0.5]];portConstraint=eastwest;rotatable=0;whiteSpace=wrap;html=1;strokeWidth=2;fontStyle=1" vertex="1" parent="409vcOzin7DSKUUwwrOm-174">
          <mxGeometry y="60" width="200" height="30" as="geometry" />
        </mxCell>
        <mxCell id="409vcOzin7DSKUUwwrOm-177" value="dp_name" style="text;strokeColor=none;fillColor=none;align=left;verticalAlign=middle;spacingLeft=4;spacingRight=4;overflow=hidden;points=[[0,0.5],[1,0.5]];portConstraint=eastwest;rotatable=0;whiteSpace=wrap;html=1;strokeWidth=2;fontStyle=1" vertex="1" parent="409vcOzin7DSKUUwwrOm-174">
          <mxGeometry y="90" width="200" height="30" as="geometry" />
        </mxCell>
        <mxCell id="409vcOzin7DSKUUwwrOm-178" value="dp_urlSegment" style="text;strokeColor=none;fillColor=none;align=left;verticalAlign=middle;spacingLeft=4;spacingRight=4;overflow=hidden;points=[[0,0.5],[1,0.5]];portConstraint=eastwest;rotatable=0;whiteSpace=wrap;html=1;strokeWidth=2;fontStyle=1" vertex="1" parent="409vcOzin7DSKUUwwrOm-174">
          <mxGeometry y="120" width="200" height="30" as="geometry" />
        </mxCell>
        <mxCell id="409vcOzin7DSKUUwwrOm-179" value="dp_text" style="text;strokeColor=none;fillColor=none;align=left;verticalAlign=middle;spacingLeft=4;spacingRight=4;overflow=hidden;points=[[0,0.5],[1,0.5]];portConstraint=eastwest;rotatable=0;whiteSpace=wrap;html=1;strokeWidth=2;fontStyle=1" vertex="1" parent="409vcOzin7DSKUUwwrOm-174">
          <mxGeometry y="150" width="200" height="30" as="geometry" />
        </mxCell>
        <mxCell id="409vcOzin7DSKUUwwrOm-180" value="dp_seoKeywords" style="text;strokeColor=none;fillColor=none;align=left;verticalAlign=middle;spacingLeft=4;spacingRight=4;overflow=hidden;points=[[0,0.5],[1,0.5]];portConstraint=eastwest;rotatable=0;whiteSpace=wrap;html=1;strokeWidth=2;fontStyle=1" vertex="1" parent="409vcOzin7DSKUUwwrOm-174">
          <mxGeometry y="180" width="200" height="30" as="geometry" />
        </mxCell>
        <mxCell id="409vcOzin7DSKUUwwrOm-181" value="dp_seoDescription" style="text;strokeColor=none;fillColor=none;align=left;verticalAlign=middle;spacingLeft=4;spacingRight=4;overflow=hidden;points=[[0,0.5],[1,0.5]];portConstraint=eastwest;rotatable=0;whiteSpace=wrap;html=1;strokeWidth=2;fontStyle=1" vertex="1" parent="409vcOzin7DSKUUwwrOm-174">
          <mxGeometry y="210" width="200" height="30" as="geometry" />
        </mxCell>
        <mxCell id="409vcOzin7DSKUUwwrOm-182" value="DP_LST_HelperContacts" style="swimlane;fontStyle=1;childLayout=stackLayout;horizontal=1;startSize=30;horizontalStack=0;resizeParent=1;resizeParentMax=0;resizeLast=0;collapsible=1;marginBottom=0;whiteSpace=wrap;html=1;strokeWidth=2;" vertex="1" parent="1">
          <mxGeometry x="880" y="240" width="160" height="150" as="geometry" />
        </mxCell>
        <mxCell id="409vcOzin7DSKUUwwrOm-183" value="dp_id" style="text;strokeColor=none;fillColor=none;align=left;verticalAlign=middle;spacingLeft=4;spacingRight=4;overflow=hidden;points=[[0,0.5],[1,0.5]];portConstraint=eastwest;rotatable=0;whiteSpace=wrap;html=1;strokeWidth=2;fontStyle=1" vertex="1" parent="409vcOzin7DSKUUwwrOm-182">
          <mxGeometry y="30" width="160" height="30" as="geometry" />
        </mxCell>
        <mxCell id="409vcOzin7DSKUUwwrOm-184" value="dp_articleId" style="text;strokeColor=none;fillColor=none;align=left;verticalAlign=middle;spacingLeft=4;spacingRight=4;overflow=hidden;points=[[0,0.5],[1,0.5]];portConstraint=eastwest;rotatable=0;whiteSpace=wrap;html=1;strokeWidth=2;fontStyle=1" vertex="1" parent="409vcOzin7DSKUUwwrOm-182">
          <mxGeometry y="60" width="160" height="30" as="geometry" />
        </mxCell>
        <mxCell id="409vcOzin7DSKUUwwrOm-185" value="dp_name" style="text;strokeColor=none;fillColor=none;align=left;verticalAlign=middle;spacingLeft=4;spacingRight=4;overflow=hidden;points=[[0,0.5],[1,0.5]];portConstraint=eastwest;rotatable=0;whiteSpace=wrap;html=1;strokeWidth=2;fontStyle=1" vertex="1" parent="409vcOzin7DSKUUwwrOm-182">
          <mxGeometry y="90" width="160" height="30" as="geometry" />
        </mxCell>
        <mxCell id="409vcOzin7DSKUUwwrOm-186" value="dp_url" style="text;strokeColor=none;fillColor=none;align=left;verticalAlign=middle;spacingLeft=4;spacingRight=4;overflow=hidden;points=[[0,0.5],[1,0.5]];portConstraint=eastwest;rotatable=0;whiteSpace=wrap;html=1;strokeWidth=2;fontStyle=1" vertex="1" parent="409vcOzin7DSKUUwwrOm-182">
          <mxGeometry y="120" width="160" height="30" as="geometry" />
        </mxCell>
        <mxCell id="409vcOzin7DSKUUwwrOm-188" style="edgeStyle=orthogonalEdgeStyle;rounded=0;orthogonalLoop=1;jettySize=auto;html=1;exitX=0;exitY=0.5;exitDx=0;exitDy=0;entryX=1;entryY=0.5;entryDx=0;entryDy=0;startArrow=ERone;startFill=0;endArrow=ERzeroToMany;endFill=0;strokeWidth=2;fontStyle=1" edge="1" parent="1" source="409vcOzin7DSKUUwwrOm-175" target="409vcOzin7DSKUUwwrOm-184">
          <mxGeometry relative="1" as="geometry" />
        </mxCell>
      </root>
    </mxGraphModel>
  </diagram>
</mxfile>
